<svg xmlns="http://www.w3.org/2000/svg" width="200" height="200" viewBox="0 0 200 200">
  <rect width="200" height="200" rx="36" fill="#040d1a"/>
  <circle cx="45" cy="80" r="10" fill="#0ea5e9"/>
  <circle cx="45" cy="110" r="7" fill="#0369a1"/>
  <circle cx="45" cy="138" r="9" fill="#0ea5e9"/>
  <circle cx="88" cy="68" r="7" fill="#06b6d4"/>
  <circle cx="88" cy="95" r="11" fill="#38bdf8"/>
  <circle cx="88" cy="122" r="7" fill="#0284c7"/>
  <circle cx="88" cy="148" r="8" fill="#06b6d4"/>
  <circle cx="128" cy="75" r="13" fill="#7dd3fc"/>
  <circle cx="128" cy="110" r="9" fill="#0ea5e9"/>
  <circle cx="128" cy="143" r="8" fill="#38bdf8"/>
  <circle cx="165" cy="68" r="7" fill="#0284c7"/>
  <circle cx="165" cy="98" r="11" fill="#06b6d4"/>
  <circle cx="165" cy="128" r="7" fill="#0ea5e9"/>
  <circle cx="165" cy="155" r="8" fill="#38bdf8"/>
  <line x1="45" y1="80" x2="88" y2="68" stroke="#0ea5e9" stroke-width="1.2" opacity="0.6"/>
  <line x1="45" y1="80" x2="88" y2="95" stroke="#06b6d4" stroke-width="1.5" opacity="0.7"/>
  <line x1="45" y1="110" x2="88" y2="95" stroke="#38bdf8" stroke-width="1.2" opacity="0.6"/>
  <line x1="45" y1="110" x2="88" y2="122" stroke="#06b6d4" stroke-width="1.5" opacity="0.7"/>
  <line x1="45" y1="138" x2="88" y2="122" stroke="#38bdf8" stroke-width="1.2" opacity="0.6"/>
  <line x1="45" y1="138" x2="88" y2="148" stroke="#06b6d4" stroke-width="1.5" opacity="0.7"/>
  <line x1="88" y1="68" x2="128" y2="75" stroke="#7dd3fc" stroke-width="1.5" opacity="0.7"/>
  <line x1="88" y1="95" x2="128" y2="75" stroke="#38bdf8" stroke-width="1.2" opacity="0.6"/>
  <line x1="88" y1="95" x2="128" y2="110" stroke="#06b6d4" stroke-width="1.5" opacity="0.7"/>
  <line x1="88" y1="122" x2="128" y2="110" stroke="#7dd3fc" stroke-width="1.2" opacity="0.6"/>
  <line x1="88" y1="122" x2="128" y2="143" stroke="#0ea5e9" stroke-width="1.5" opacity="0.7"/>
  <line x1="88" y1="148" x2="128" y2="143" stroke="#38bdf8" stroke-width="1.2" opacity="0.6"/>
  <line x1="128" y1="75" x2="165" y2="68" stroke="#06b6d4" stroke-width="1.2" opacity="0.6"/>
  <line x1="128" y1="75" x2="165" y2="98" stroke="#7dd3fc" stroke-width="1.5" opacity="0.7"/>
  <line x1="128" y1="110" x2="165" y2="98" stroke="#0ea5e9" stroke-width="1.2" opacity="0.6"/>
  <line x1="128" y1="110" x2="165" y2="128" stroke="#38bdf8" stroke-width="1.5" opacity="0.7"/>
  <line x1="128" y1="143" x2="165" y2="128" stroke="#06b6d4" stroke-width="1.2" opacity="0.6"/>
  <line x1="128" y1="143" x2="165" y2="155" stroke="#7dd3fc" stroke-width="1.5" opacity="0.7"/>
</svg>
