<svg xmlns="http://www.w3.org/2000/svg" width="700" height="220" viewBox="0 0 700 220">
  <rect width="700" height="220" rx="16" fill="#040d1a"/>
  <circle cx="70" cy="75" r="11" fill="#0ea5e9"/>
  <circle cx="70" cy="110" r="8" fill="#0369a1"/>
  <circle cx="70" cy="145" r="10" fill="#0ea5e9"/>
  <circle cx="140" cy="60" r="8" fill="#06b6d4"/>
  <circle cx="140" cy="95" r="11" fill="#38bdf8"/>
  <circle cx="140" cy="128" r="7" fill="#0284c7"/>
  <circle cx="140" cy="158" r="9" fill="#06b6d4"/>
  <circle cx="210" cy="70" r="13" fill="#7dd3fc"/>
  <circle cx="210" cy="110" r="10" fill="#0ea5e9"/>
  <circle cx="210" cy="148" r="8" fill="#38bdf8"/>
  <circle cx="280" cy="60" r="8" fill="#0284c7"/>
  <circle cx="280" cy="95" r="11" fill="#06b6d4"/>
  <circle cx="280" cy="128" r="7" fill="#0ea5e9"/>
  <circle cx="280" cy="160" r="9" fill="#38bdf8"/>
  <line x1="70" y1="75" x2="140" y2="60" stroke="#0ea5e9" stroke-width="1" opacity="0.6"/>
  <line x1="70" y1="75" x2="140" y2="95" stroke="#06b6d4" stroke-width="1.5" opacity="0.7"/>
  <line x1="70" y1="75" x2="140" y2="128" stroke="#0369a1" stroke-width="0.7" opacity="0.4"/>
  <line x1="70" y1="110" x2="140" y2="60" stroke="#0284c7" stroke-width="0.7" opacity="0.4"/>
  <line x1="70" y1="110" x2="140" y2="95" stroke="#38bdf8" stroke-width="1.3" opacity="0.6"/>
  <line x1="70" y1="110" x2="140" y2="128" stroke="#06b6d4" stroke-width="1.5" opacity="0.7"/>
  <line x1="70" y1="110" x2="140" y2="158" stroke="#0369a1" stroke-width="0.7" opacity="0.3"/>
  <line x1="70" y1="145" x2="140" y2="95" stroke="#0ea5e9" stroke-width="0.7" opacity="0.4"/>
  <line x1="70" y1="145" x2="140" y2="128" stroke="#38bdf8" stroke-width="1.3" opacity="0.6"/>
  <line x1="70" y1="145" x2="140" y2="158" stroke="#06b6d4" stroke-width="1.5" opacity="0.7"/>
  <line x1="140" y1="60" x2="210" y2="70" stroke="#7dd3fc" stroke-width="1.5" opacity="0.7"/>
  <line x1="140" y1="60" x2="210" y2="110" stroke="#0ea5e9" stroke-width="0.7" opacity="0.4"/>
  <line x1="140" y1="95" x2="210" y2="70" stroke="#38bdf8" stroke-width="1.3" opacity="0.6"/>
  <line x1="140" y1="95" x2="210" y2="110" stroke="#06b6d4" stroke-width="1.5" opacity="0.7"/>
  <line x1="140" y1="128" x2="210" y2="110" stroke="#7dd3fc" stroke-width="1.3" opacity="0.6"/>
  <line x1="140" y1="128" x2="210" y2="148" stroke="#0ea5e9" stroke-width="1.5" opacity="0.7"/>
  <line x1="140" y1="158" x2="210" y2="110" stroke="#0284c7" stroke-width="0.7" opacity="0.4"/>
  <line x1="140" y1="158" x2="210" y2="148" stroke="#38bdf8" stroke-width="1.3" opacity="0.6"/>
  <line x1="210" y1="70" x2="280" y2="60" stroke="#06b6d4" stroke-width="1.3" opacity="0.6"/>
  <line x1="210" y1="70" x2="280" y2="95" stroke="#7dd3fc" stroke-width="1.5" opacity="0.7"/>
  <line x1="210" y1="110" x2="280" y2="60" stroke="#0284c7" stroke-width="0.7" opacity="0.4"/>
  <line x1="210" y1="110" x2="280" y2="95" stroke="#0ea5e9" stroke-width="1.3" opacity="0.6"/>
  <line x1="210" y1="110" x2="280" y2="128" stroke="#38bdf8" stroke-width="1.5" opacity="0.7"/>
  <line x1="210" y1="148" x2="280" y2="128" stroke="#06b6d4" stroke-width="1.3" opacity="0.6"/>
  <line x1="210" y1="148" x2="280" y2="160" stroke="#7dd3fc" stroke-width="1.5" opacity="0.7"/>
  <line x1="318" y1="40" x2="318" y2="180" stroke="#0a2a4a" stroke-width="1"/>
  <text x="345" y="105" font-family="Georgia, 'Times New Roman', serif" font-size="44" font-weight="700" fill="#ffffff" letter-spacing="6">AIMACORE</text>
  <text x="347" y="128" font-family="Arial, sans-serif" font-size="11" fill="#38bdf8" letter-spacing="6">INTELIGENCIA ARTIFICIAL</text>
  <line x1="347" y1="142" x2="420" y2="142" stroke="#0369a1" stroke-width="0.8"/>
  <line x1="422" y1="142" x2="510" y2="142" stroke="#38bdf8" stroke-width="1.5"/>
  <line x1="512" y1="142" x2="586" y2="142" stroke="#0369a1" stroke-width="0.8"/>
</svg>
